<svg id="visual" viewBox="0 0 900 600" width="900" height="600" xmlns="http://www.w3.org/2000/svg" xmlns:xlink="http://www.w3.org/1999/xlink" version="1.1"><path d="M0 294L12.5 306.3C25 318.7 50 343.3 75 355.3C100 367.3 125 366.7 150 359.3C175 352 200 338 225 333.2C250 328.3 275 332.7 300 334.8C325 337 350 337 375 329.8C400 322.7 425 308.3 450 309.2C475 310 500 326 525 325.5C550 325 575 308 600 299.5C625 291 650 291 675 298.5C700 306 725 321 750 327.7C775 334.3 800 332.7 825 326.8C850 321 875 311 887.5 306L900 301L900 601L887.5 601C875 601 850 601 825 601C800 601 775 601 750 601C725 601 700 601 675 601C650 601 625 601 600 601C575 601 550 601 525 601C500 601 475 601 450 601C425 601 400 601 375 601C350 601 325 601 300 601C275 601 250 601 225 601C200 601 175 601 150 601C125 601 100 601 75 601C50 601 25 601 12.5 601L0 601Z" fill="#5bb0ff"></path><path d="M0 397L12.5 391.8C25 386.7 50 376.3 75 379.7C100 383 125 400 150 407.5C175 415 200 413 225 405.3C250 397.7 275 384.3 300 382.2C325 380 350 389 375 397.5C400 406 425 414 450 410.7C475 407.3 500 392.7 525 381.8C550 371 575 364 600 360.8C625 357.7 650 358.3 675 367.8C700 377.3 725 395.7 750 397.2C775 398.7 800 383.3 825 373.8C850 364.3 875 360.7 887.5 358.8L900 357L900 601L887.5 601C875 601 850 601 825 601C800 601 775 601 750 601C725 601 700 601 675 601C650 601 625 601 600 601C575 601 550 601 525 601C500 601 475 601 450 601C425 601 400 601 375 601C350 601 325 601 300 601C275 601 250 601 225 601C200 601 175 601 150 601C125 601 100 601 75 601C50 601 25 601 12.5 601L0 601Z" fill="#4ca8ff"></path><path d="M0 429L12.5 429.3C25 429.7 50 430.3 75 431.8C100 433.3 125 435.7 150 433.7C175 431.7 200 425.3 225 421C250 416.7 275 414.3 300 419.2C325 424 350 436 375 437.8C400 439.7 425 431.3 450 432.5C475 433.7 500 444.3 525 449.2C550 454 575 453 600 454.2C625 455.3 650 458.7 675 452.7C700 446.7 725 431.3 750 424.8C775 418.3 800 420.7 825 426.5C850 432.3 875 441.7 887.5 446.3L900 451L900 601L887.5 601C875 601 850 601 825 601C800 601 775 601 750 601C725 601 700 601 675 601C650 601 625 601 600 601C575 601 550 601 525 601C500 601 475 601 450 601C425 601 400 601 375 601C350 601 325 601 300 601C275 601 250 601 225 601C200 601 175 601 150 601C125 601 100 601 75 601C50 601 25 601 12.5 601L0 601Z" fill="#3da0ff"></path><path d="M0 507L12.5 500.2C25 493.3 50 479.7 75 478C100 476.3 125 486.7 150 484.8C175 483 200 469 225 469C250 469 275 483 300 486.8C325 490.7 350 484.3 375 481C400 477.7 425 477.3 450 480.3C475 483.3 500 489.7 525 494.5C550 499.3 575 502.7 600 499.8C625 497 650 488 675 483.3C700 478.7 725 478.3 750 474.3C775 470.3 800 462.7 825 467.3C850 472 875 489 887.5 497.5L900 506L900 601L887.5 601C875 601 850 601 825 601C800 601 775 601 750 601C725 601 700 601 675 601C650 601 625 601 600 601C575 601 550 601 525 601C500 601 475 601 450 601C425 601 400 601 375 601C350 601 325 601 300 601C275 601 250 601 225 601C200 601 175 601 150 601C125 601 100 601 75 601C50 601 25 601 12.5 601L0 601Z" fill="#2c98ff"></path><path d="M0 539L12.5 538.7C25 538.3 50 537.7 75 534.5C100 531.3 125 525.7 150 524.3C175 523 200 526 225 524.7C250 523.3 275 517.7 300 517.7C325 517.7 350 523.3 375 524.3C400 525.3 425 521.7 450 518.7C475 515.7 500 513.3 525 512.2C550 511 575 511 600 517C625 523 650 535 675 535.5C700 536 725 525 750 520.7C775 516.3 800 518.7 825 524.5C850 530.3 875 539.7 887.5 544.3L900 549L900 601L887.5 601C875 601 850 601 825 601C800 601 775 601 750 601C725 601 700 601 675 601C650 601 625 601 600 601C575 601 550 601 525 601C500 601 475 601 450 601C425 601 400 601 375 601C350 601 325 601 300 601C275 601 250 601 225 601C200 601 175 601 150 601C125 601 100 601 75 601C50 601 25 601 12.5 601L0 601Z" fill="#1890ff"></path></svg>